<svg width="18" height="16" viewBox="0 0 18 16" fill="none" xmlns="http://www.w3.org/2000/svg">
<path d="M6.82672 3C6.82672 2.46957 7.03744 1.96086 7.41251 1.58579C7.78758 1.21071 8.29629 1 8.82672 1C9.35715 1 9.86586 1.21071 10.2409 1.58579C10.616 1.96086 10.8267 2.46957 10.8267 3C11.9751 3.54303 12.9541 4.38833 13.6588 5.4453C14.3634 6.50227 14.7672 7.73107 14.8267 9V12C14.902 12.6217 15.1222 13.2171 15.4695 13.7381C15.8169 14.2592 16.2818 14.6914 16.8267 15H0.826721C1.37166 14.6914 1.83653 14.2592 2.18391 13.7381C2.53129 13.2171 2.75147 12.6217 2.82672 12V9C2.88628 7.73107 3.29002 6.50227 3.99467 5.4453C4.69932 4.38833 5.67831 3.54303 6.82672 3" stroke="#F3F5FF" stroke-width="1.5" stroke-linecap="round" stroke-linejoin="round"/>
</svg>
